<svg data-v-fde0c5aa="" xmlns="http://www.w3.org/2000/svg" viewBox="0 0 300 300" class="iconLeft"><!----><defs data-v-fde0c5aa=""><!----></defs><rect data-v-fde0c5aa="" fill="#366164" x="0" y="0" width="300px" height="300px" class="logo-background-square"></rect><defs data-v-fde0c5aa=""><!----></defs><g data-v-fde0c5aa="" id="d859a849-c566-4a46-a4ef-4c3b1f72ceb4" fill="#53BBAD" transform="matrix(2.4228403568267822,0,0,2.4228403568267822,121.58578436406124,129.81755112180244)"><path d="M11.05 13.51L9.18 13.51L8.34 6.94L5.84 11.45L3.32 6.96L2.48 13.51L0.62 13.51L1.97 3.71L3.44 3.71L5.84 8.18L8.22 3.71L9.69 3.71L11.05 13.51ZM15.65 13.65L15.65 13.65Q14.55 13.65 13.73 13.16L13.73 13.16L13.73 13.16Q12.92 12.67 12.49 11.84L12.49 11.84L12.49 11.84Q12.05 11.02 12.05 10.02L12.05 10.02L12.05 10.02Q12.05 9.03 12.49 8.19L12.49 8.19L12.49 8.19Q12.92 7.35 13.73 6.86L13.73 6.86L13.73 6.86Q14.55 6.37 15.65 6.37L15.65 6.37L15.65 6.37Q16.76 6.37 17.57 6.86L17.57 6.86L17.57 6.86Q18.38 7.35 18.82 8.19L18.82 8.19L18.82 8.19Q19.25 9.03 19.25 10.02L19.25 10.02L19.25 10.02Q19.25 11.02 18.82 11.84L18.82 11.84L18.82 11.84Q18.38 12.67 17.57 13.16L17.57 13.16L17.57 13.16Q16.76 13.65 15.65 13.65L15.65 13.65ZM15.65 12.22L15.65 12.22Q16.51 12.22 16.99 11.62L16.99 11.62L16.99 11.62Q17.47 11.02 17.47 10.02L17.47 10.02L17.47 10.02Q17.47 9.02 16.99 8.41L16.99 8.41L16.99 8.41Q16.51 7.80 15.65 7.80L15.65 7.80L15.65 7.80Q14.80 7.80 14.32 8.41L14.32 8.41L14.32 8.41Q13.83 9.02 13.83 10.02L13.83 10.02L13.83 10.02Q13.83 11.02 14.32 11.62L14.32 11.62L14.32 11.62Q14.80 12.22 15.65 12.22L15.65 12.22ZM22.25 13.65L22.25 13.65Q21.35 13.65 20.90 13.14L20.90 13.14L20.90 13.14Q20.45 12.63 20.45 11.82L20.45 11.82L20.45 3.01L22.19 3.01L22.19 11.10L22.19 11.10Q22.19 11.66 22.25 11.89L22.25 11.89L22.25 11.89Q22.32 12.12 22.48 12.17L22.48 12.17L22.48 12.17Q22.64 12.22 23.03 12.22L23.03 12.22L22.88 13.65L22.25 13.65ZM27.66 6.40L27.66 6.40Q28.97 6.40 29.64 7.27L29.64 7.27L29.64 7.27Q30.31 8.13 30.31 9.60L30.31 9.60L30.31 13.51L28.57 13.51L28.57 9.74L28.57 9.74Q28.57 8.76 28.25 8.29L28.25 8.29L28.25 8.29Q27.92 7.83 27.19 7.83L27.19 7.83L27.19 7.83Q26.39 7.83 25.87 8.43L25.87 8.43L25.87 13.51L24.14 13.51L24.14 6.51L25.76 6.51L25.79 7L25.79 7Q26.67 6.40 27.66 6.40L27.66 6.40ZM35.24 13.65L35.24 13.65Q34.02 13.65 33.16 13.15L33.16 13.15L33.16 13.15Q32.30 12.66 31.87 11.82L31.87 11.82L31.87 11.82Q31.44 10.99 31.44 9.97L31.44 9.97L31.44 9.97Q31.44 8.99 31.85 8.18L31.85 8.18L31.85 8.18Q32.26 7.36 33.03 6.88L33.03 6.88L33.03 6.88Q33.80 6.40 34.86 6.40L34.86 6.40L34.86 6.40Q35.84 6.40 36.52 6.80L36.52 6.80L36.52 6.80Q37.20 7.21 37.54 7.90L37.54 7.90L37.54 7.90Q37.88 8.58 37.88 9.44L37.88 9.44L37.88 9.44Q37.88 9.86 37.77 10.39L37.77 10.39L33.25 10.39L33.25 10.39Q33.39 11.31 33.98 11.77L33.98 11.77L33.98 11.77Q34.57 12.22 35.39 12.22L35.39 12.22L35.39 12.22Q36.53 12.22 37.49 11.65L37.49 11.65L37.58 13.12L37.58 13.12Q37.13 13.36 36.53 13.50L36.53 13.50L36.53 13.50Q35.94 13.65 35.24 13.65L35.24 13.65ZM33.29 9.21L36.12 9.21L36.12 9.21Q36.12 8.67 35.81 8.25L35.81 8.25L35.81 8.25Q35.50 7.83 34.86 7.83L34.86 7.83L34.86 7.83Q34.22 7.83 33.82 8.20L33.82 8.20L33.82 8.20Q33.43 8.58 33.29 9.21L33.29 9.21ZM41.36 13.65L41.36 13.65Q40.43 13.65 39.96 13.11L39.96 13.11L39.96 13.11Q39.48 12.57 39.48 11.82L39.48 11.82L39.48 7.94L38.49 7.94L38.64 6.51L39.48 6.51L39.48 4.97L41.22 4.79L41.22 6.51L42.76 6.51L42.76 7.94L41.22 7.94L41.22 11.10L41.22 11.10Q41.22 11.66 41.28 11.88L41.28 11.88L41.28 11.88Q41.34 12.10 41.55 12.16L41.55 12.16L41.55 12.16Q41.75 12.22 42.28 12.22L42.28 12.22L42.76 12.22L42.60 13.65L41.36 13.65ZM43.72 13.51L43.72 11.61L45.54 11.61L45.54 13.51L43.72 13.51ZM47.00 5.45L47.00 3.71L48.73 3.71L48.73 5.45L47.00 5.45ZM47.00 13.51L47.00 6.51L48.73 6.51L48.73 13.51L47.00 13.51ZM53.54 13.65L53.54 13.65Q52.43 13.65 51.62 13.16L51.62 13.16L51.62 13.16Q50.81 12.67 50.37 11.84L50.37 11.84L50.37 11.84Q49.94 11.02 49.94 10.02L49.94 10.02L49.94 10.02Q49.94 9.03 50.37 8.19L50.37 8.19L50.37 8.19Q50.81 7.35 51.62 6.86L51.62 6.86L51.62 6.86Q52.43 6.37 53.54 6.37L53.54 6.37L53.54 6.37Q54.64 6.37 55.45 6.86L55.45 6.86L55.45 6.86Q56.27 7.35 56.70 8.19L56.70 8.19L56.70 8.19Q57.13 9.03 57.13 10.02L57.13 10.02L57.13 10.02Q57.13 11.02 56.70 11.84L56.70 11.84L56.70 11.84Q56.27 12.67 55.45 13.16L55.45 13.16L55.45 13.16Q54.64 13.65 53.54 13.65L53.54 13.65ZM53.54 12.22L53.54 12.22Q54.39 12.22 54.87 11.62L54.87 11.62L54.87 11.62Q55.36 11.02 55.36 10.02L55.36 10.02L55.36 10.02Q55.36 9.02 54.87 8.41L54.87 8.41L54.87 8.41Q54.39 7.80 53.54 7.80L53.54 7.80L53.54 7.80Q52.68 7.80 52.20 8.41L52.20 8.41L52.20 8.41Q51.72 9.02 51.72 10.02L51.72 10.02L51.72 10.02Q51.72 11.02 52.20 11.62L52.20 11.62L52.20 11.62Q52.68 12.22 53.54 12.22L53.54 12.22Z"></path></g><defs data-v-fde0c5aa=""><!----></defs><g data-v-fde0c5aa="" id="197712b3-f3b1-454e-87c0-d11db8a9dfdf" stroke="none" fill="#53BBAD" transform="matrix(0.700905978679657,0,0,0.700905978679657,40,130.67169696529942)"><path d="M77.959 55.154H11.282C5.061 55.154 0 50.093 0 43.873c0-5.278 3.643-9.721 8.546-10.946 2.188-5.469 7.248-9.386 13.149-10.089C22.317 10.14 32.843 0 45.693 0c9.417 0 17.822 5.536 21.723 13.756a21.944 21.944 0 0 1 10.543-2.682c12.153 0 22.041 9.887 22.041 22.04 0 12.153-9.887 22.04-22.041 22.04zm-66.75-14.782a3.507 3.507 0 0 0-3.429 3.501 3.504 3.504 0 0 0 3.501 3.501h66.678c7.863 0 14.26-6.397 14.26-14.26 0-7.863-6.396-14.259-14.26-14.259-3.683 0-7.18 1.404-9.847 3.952l-5.096 4.871-1.404-6.908c-1.529-7.527-8.224-12.99-15.919-12.99-8.958 0-16.247 7.288-16.247 16.246 0 .728.054 1.483.159 2.246l.73 5.287-5.256-.923a8.59 8.59 0 0 0-1.474-.132c-4.002 0-7.479 2.842-8.267 6.757l-.65 3.227-3.29-.106-.189-.01z"></path></g><!----></svg>