<svg data-v-fde0c5aa="" xmlns="http://www.w3.org/2000/svg" viewBox="0 0 300 300" class="iconLeft"><!----><defs data-v-fde0c5aa=""><!----></defs><rect data-v-fde0c5aa="" fill="#0F1214" x="0" y="0" width="300px" height="300px" class="logo-background-square"></rect><defs data-v-fde0c5aa=""><!----></defs><g data-v-fde0c5aa="" id="701e8be2-e7b8-40e9-9a14-b300b09d71d5" fill="#53BBAD" transform="matrix(2.4136807918548584,0,0,2.4136807918548584,120.87393163411285,129.8938505834742)"><path d="M8.67 6.40L8.67 6.40Q10.07 6.40 10.75 7.24L10.75 7.24L10.75 7.24Q11.42 8.09 11.42 9.62L11.42 9.62L11.42 13.51L9.69 13.51L9.69 9.74L9.69 9.74Q9.69 8.75 9.38 8.29L9.38 8.29L9.38 8.29Q9.07 7.83 8.37 7.83L8.37 7.83L8.37 7.83Q7.69 7.83 7.34 8.29L7.34 8.29L7.34 8.29Q6.99 8.76 6.99 9.62L6.99 9.62L6.99 13.51L5.25 13.51L5.25 9.74L5.25 9.74Q5.25 8.75 4.93 8.29L4.93 8.29L4.93 8.29Q4.61 7.83 3.91 7.83L3.91 7.83L3.91 7.83Q3.08 7.83 2.55 8.43L2.55 8.43L2.55 13.51L0.81 13.51L0.81 6.51L2.30 6.51L2.35 7.07L2.35 7.07Q3.30 6.40 4.41 6.40L4.41 6.40L4.41 6.40Q5.75 6.40 6.41 7.36L6.41 7.36L6.41 7.36Q6.78 6.90 7.36 6.65L7.36 6.65L7.36 6.65Q7.95 6.40 8.67 6.40L8.67 6.40ZM16.16 13.65L16.16 13.65Q15.05 13.65 14.24 13.16L14.24 13.16L14.24 13.16Q13.43 12.67 12.99 11.84L12.99 11.84L12.99 11.84Q12.56 11.02 12.56 10.02L12.56 10.02L12.56 10.02Q12.56 9.03 12.99 8.19L12.99 8.19L12.99 8.19Q13.43 7.35 14.24 6.86L14.24 6.86L14.24 6.86Q15.05 6.37 16.16 6.37L16.16 6.37L16.16 6.37Q17.26 6.37 18.07 6.86L18.07 6.86L18.07 6.86Q18.89 7.35 19.32 8.19L19.32 8.19L19.32 8.19Q19.75 9.03 19.75 10.02L19.75 10.02L19.75 10.02Q19.75 11.02 19.32 11.84L19.32 11.84L19.32 11.84Q18.89 12.67 18.07 13.16L18.07 13.16L18.07 13.16Q17.26 13.65 16.16 13.65L16.16 13.65ZM16.16 12.22L16.16 12.22Q17.01 12.22 17.49 11.62L17.49 11.62L17.49 11.62Q17.98 11.02 17.98 10.02L17.98 10.02L17.98 10.02Q17.98 9.02 17.49 8.41L17.49 8.41L17.49 8.41Q17.01 7.80 16.16 7.80L16.16 7.80L16.16 7.80Q15.30 7.80 14.82 8.41L14.82 8.41L14.82 8.41Q14.34 9.02 14.34 10.02L14.34 10.02L14.34 10.02Q14.34 11.02 14.82 11.62L14.82 11.62L14.82 11.62Q15.30 12.22 16.16 12.22L16.16 12.22ZM22.75 13.65L22.75 13.65Q21.85 13.65 21.41 13.14L21.41 13.14L21.41 13.14Q20.96 12.63 20.96 11.82L20.96 11.82L20.96 3.01L22.69 3.01L22.69 11.10L22.69 11.10Q22.69 11.66 22.76 11.89L22.76 11.89L22.76 11.89Q22.82 12.12 22.98 12.17L22.98 12.17L22.98 12.17Q23.14 12.22 23.53 12.22L23.53 12.22L23.38 13.65L22.75 13.65ZM28.17 6.40L28.17 6.40Q29.47 6.40 30.14 7.27L30.14 7.27L30.14 7.27Q30.81 8.13 30.81 9.60L30.81 9.60L30.81 13.51L29.08 13.51L29.08 9.74L29.08 9.74Q29.08 8.76 28.75 8.29L28.75 8.29L28.75 8.29Q28.42 7.83 27.69 7.83L27.69 7.83L27.69 7.83Q26.89 7.83 26.38 8.43L26.38 8.43L26.38 13.51L24.64 13.51L24.64 6.51L26.26 6.51L26.29 7L26.29 7Q27.17 6.40 28.17 6.40L28.17 6.40ZM35.74 13.65L35.74 13.65Q34.52 13.65 33.66 13.15L33.66 13.15L33.66 13.15Q32.80 12.66 32.38 11.82L32.38 11.82L32.38 11.82Q31.95 10.99 31.95 9.97L31.95 9.97L31.95 9.97Q31.95 8.99 32.35 8.18L32.35 8.18L32.35 8.18Q32.76 7.36 33.53 6.88L33.53 6.88L33.53 6.88Q34.30 6.40 35.36 6.40L35.36 6.40L35.36 6.40Q36.34 6.40 37.02 6.80L37.02 6.80L37.02 6.80Q37.70 7.21 38.04 7.90L38.04 7.90L38.04 7.90Q38.39 8.58 38.39 9.44L38.39 9.44L38.39 9.44Q38.39 9.86 38.28 10.39L38.28 10.39L33.75 10.39L33.75 10.39Q33.89 11.31 34.48 11.77L34.48 11.77L34.48 11.77Q35.07 12.22 35.90 12.22L35.90 12.22L35.90 12.22Q37.03 12.22 38.00 11.65L38.00 11.65L38.08 13.12L38.08 13.12Q37.63 13.36 37.04 13.50L37.04 13.50L37.04 13.50Q36.44 13.65 35.74 13.65L35.74 13.65ZM33.80 9.21L36.62 9.21L36.62 9.21Q36.62 8.67 36.32 8.25L36.32 8.25L36.32 8.25Q36.01 7.83 35.36 7.83L35.36 7.83L35.36 7.83Q34.72 7.83 34.33 8.20L34.33 8.20L34.33 8.20Q33.94 8.58 33.80 9.21L33.80 9.21ZM41.86 13.65L41.86 13.65Q40.94 13.65 40.46 13.11L40.46 13.11L40.46 13.11Q39.98 12.57 39.98 11.82L39.98 11.82L39.98 7.94L38.99 7.94L39.14 6.51L39.98 6.51L39.98 4.97L41.72 4.79L41.72 6.51L43.26 6.51L43.26 7.94L41.72 7.94L41.72 11.10L41.72 11.10Q41.72 11.66 41.78 11.88L41.78 11.88L41.78 11.88Q41.85 12.10 42.05 12.16L42.05 12.16L42.05 12.16Q42.25 12.22 42.78 12.22L42.78 12.22L43.26 12.22L43.11 13.65L41.86 13.65ZM44.23 13.51L44.23 11.61L46.05 11.61L46.05 13.51L44.23 13.51ZM47.50 5.45L47.50 3.71L49.24 3.71L49.24 5.45L47.50 5.45ZM47.50 13.51L47.50 6.51L49.24 6.51L49.24 13.51L47.50 13.51ZM54.04 13.65L54.04 13.65Q52.93 13.65 52.12 13.16L52.12 13.16L52.12 13.16Q51.31 12.67 50.88 11.84L50.88 11.84L50.88 11.84Q50.44 11.02 50.44 10.02L50.44 10.02L50.44 10.02Q50.44 9.03 50.88 8.19L50.88 8.19L50.88 8.19Q51.31 7.35 52.12 6.86L52.12 6.86L52.12 6.86Q52.93 6.37 54.04 6.37L54.04 6.37L54.04 6.37Q55.15 6.37 55.96 6.86L55.96 6.86L55.96 6.86Q56.77 7.35 57.20 8.19L57.20 8.19L57.20 8.19Q57.64 9.03 57.64 10.02L57.64 10.02L57.64 10.02Q57.64 11.02 57.20 11.84L57.20 11.84L57.20 11.84Q56.77 12.67 55.96 13.16L55.96 13.16L55.96 13.16Q55.15 13.65 54.04 13.65L54.04 13.65ZM54.04 12.22L54.04 12.22Q54.89 12.22 55.38 11.62L55.38 11.62L55.38 11.62Q55.86 11.02 55.86 10.02L55.86 10.02L55.86 10.02Q55.86 9.02 55.38 8.41L55.38 8.41L55.38 8.41Q54.89 7.80 54.04 7.80L54.04 7.80L54.04 7.80Q53.19 7.80 52.70 8.41L52.70 8.41L52.70 8.41Q52.22 9.02 52.22 10.02L52.22 10.02L52.22 10.02Q52.22 11.02 52.70 11.62L52.70 11.62L52.70 11.62Q53.19 12.22 54.04 12.22L54.04 12.22Z"></path></g><defs data-v-fde0c5aa=""><!----></defs><g data-v-fde0c5aa="" id="13d911d1-b951-4128-ab32-47699422928c" stroke="none" fill="#53BBAD" transform="matrix(0.6982561945915222,0,0,0.6982561945915222,40,130.74476734072695)"><path d="M77.959 55.154H11.282C5.061 55.154 0 50.093 0 43.873c0-5.278 3.643-9.721 8.546-10.946 2.188-5.469 7.248-9.386 13.149-10.089C22.317 10.14 32.843 0 45.693 0c9.417 0 17.822 5.536 21.723 13.756a21.944 21.944 0 0 1 10.543-2.682c12.153 0 22.041 9.887 22.041 22.04 0 12.153-9.887 22.04-22.041 22.04zm-66.75-14.782a3.507 3.507 0 0 0-3.429 3.501 3.504 3.504 0 0 0 3.501 3.501h66.678c7.863 0 14.26-6.397 14.26-14.26 0-7.863-6.396-14.259-14.26-14.259-3.683 0-7.18 1.404-9.847 3.952l-5.096 4.871-1.404-6.908c-1.529-7.527-8.224-12.99-15.919-12.99-8.958 0-16.247 7.288-16.247 16.246 0 .728.054 1.483.159 2.246l.73 5.287-5.256-.923a8.59 8.59 0 0 0-1.474-.132c-4.002 0-7.479 2.842-8.267 6.757l-.65 3.227-3.29-.106-.189-.01z"></path></g><!----></svg>